# xmcd
#
# Track frame offsets:
#	150
#	65789
#	98616
#	114792
#	165473
#	180163
#	196634
#
# Disc length: 3075 seconds
#
# Revision: 0
# Processed by: cddbd v1.5.2PL0 Copyright (c) Steve Scherf et al.
# Submitted via: audiograbber 1.83.01
#
DISCID=470c0107
DTITLE=Driftin - Lord Extra
DYEAR=2010
DGENRE=Blues
TTITLE0=Xtra Jam
TTITLE1=It´s about time
TTITLE2=Cantaloupe Island
TTITLE3=Cultureclub Jam
TTITLE4=Short and Fast Blues
TTITLE5=Jumping at Shadows
TTITLE6=You´re leaving
EXTD=
EXTT0=
EXTT1=
EXTT2=
EXTT3=
EXTT4=
EXTT5=
EXTT6=
PLAYORDER=
